<mxfile host="app.diagrams.net" modified="2021-01-28T23:02:14.363Z" agent="5.0 (X11; Linux x86_64) AppleWebKit/537.36 (KHTML, like Gecko) Chrome/87.0.4280.88 Safari/537.36" etag="h6ofq3xx93hVbPTJ55JX" version="14.2.7" type="github">
  <diagram id="nK2MSUGOy9_IVsN54PVD" name="Page-1">
    <mxGraphModel dx="1350" dy="806" grid="1" gridSize="10" guides="1" tooltips="1" connect="1" arrows="1" fold="1" page="1" pageScale="1" pageWidth="850" pageHeight="1100" math="0" shadow="0">
      <root>
        <mxCell id="0" />
        <mxCell id="1" parent="0" />
        <mxCell id="6zP0pa2SNQ4AhNTs8ksv-1" value="10" style="ellipse;whiteSpace=wrap;html=1;" vertex="1" parent="1">
          <mxGeometry x="330" y="50" width="120" height="120" as="geometry" />
        </mxCell>
        <mxCell id="6zP0pa2SNQ4AhNTs8ksv-3" value="5" style="ellipse;whiteSpace=wrap;html=1;" vertex="1" parent="1">
          <mxGeometry x="240" y="250" width="120" height="120" as="geometry" />
        </mxCell>
        <mxCell id="6zP0pa2SNQ4AhNTs8ksv-4" value="15" style="ellipse;whiteSpace=wrap;html=1;" vertex="1" parent="1">
          <mxGeometry x="450" y="250" width="120" height="120" as="geometry" />
        </mxCell>
        <mxCell id="6zP0pa2SNQ4AhNTs8ksv-5" value="" style="endArrow=classic;html=1;exitX=1;exitY=1;exitDx=0;exitDy=0;" edge="1" parent="1" source="6zP0pa2SNQ4AhNTs8ksv-1" target="6zP0pa2SNQ4AhNTs8ksv-4">
          <mxGeometry width="50" height="50" relative="1" as="geometry">
            <mxPoint x="630" y="440" as="sourcePoint" />
            <mxPoint x="680" y="390" as="targetPoint" />
          </mxGeometry>
        </mxCell>
        <mxCell id="6zP0pa2SNQ4AhNTs8ksv-7" value="" style="endArrow=classic;html=1;exitX=0;exitY=1;exitDx=0;exitDy=0;entryX=0.5;entryY=0;entryDx=0;entryDy=0;" edge="1" parent="1" source="6zP0pa2SNQ4AhNTs8ksv-1" target="6zP0pa2SNQ4AhNTs8ksv-3">
          <mxGeometry width="50" height="50" relative="1" as="geometry">
            <mxPoint x="380.00082201144966" y="261.43889503027594" as="sourcePoint" />
            <mxPoint x="350" y="359" as="targetPoint" />
          </mxGeometry>
        </mxCell>
        <mxCell id="6zP0pa2SNQ4AhNTs8ksv-8" value="1" style="ellipse;whiteSpace=wrap;html=1;" vertex="1" parent="1">
          <mxGeometry x="150" y="457.57" width="120" height="120" as="geometry" />
        </mxCell>
        <mxCell id="6zP0pa2SNQ4AhNTs8ksv-9" value="7" style="ellipse;whiteSpace=wrap;html=1;" vertex="1" parent="1">
          <mxGeometry x="360" y="457.57" width="120" height="120" as="geometry" />
        </mxCell>
        <mxCell id="6zP0pa2SNQ4AhNTs8ksv-10" value="" style="endArrow=classic;html=1;exitX=1;exitY=1;exitDx=0;exitDy=0;" edge="1" parent="1" target="6zP0pa2SNQ4AhNTs8ksv-9">
          <mxGeometry width="50" height="50" relative="1" as="geometry">
            <mxPoint x="342.42640687119297" y="359.99640687119296" as="sourcePoint" />
            <mxPoint x="590" y="597.5699999999999" as="targetPoint" />
          </mxGeometry>
        </mxCell>
        <mxCell id="6zP0pa2SNQ4AhNTs8ksv-11" value="" style="endArrow=classic;html=1;exitX=0;exitY=1;exitDx=0;exitDy=0;entryX=0.5;entryY=0;entryDx=0;entryDy=0;" edge="1" parent="1" target="6zP0pa2SNQ4AhNTs8ksv-8">
          <mxGeometry width="50" height="50" relative="1" as="geometry">
            <mxPoint x="257.57359312880703" y="359.99640687119296" as="sourcePoint" />
            <mxPoint x="260" y="566.5699999999999" as="targetPoint" />
          </mxGeometry>
        </mxCell>
        <mxCell id="6zP0pa2SNQ4AhNTs8ksv-14" value="6" style="ellipse;whiteSpace=wrap;html=1;" vertex="1" parent="1">
          <mxGeometry x="270" y="657.5699999999999" width="120" height="120" as="geometry" />
        </mxCell>
        <mxCell id="6zP0pa2SNQ4AhNTs8ksv-15" value="9" style="ellipse;whiteSpace=wrap;html=1;" vertex="1" parent="1">
          <mxGeometry x="480" y="657.5699999999999" width="120" height="120" as="geometry" />
        </mxCell>
        <mxCell id="6zP0pa2SNQ4AhNTs8ksv-16" value="" style="endArrow=classic;html=1;exitX=1;exitY=1;exitDx=0;exitDy=0;" edge="1" parent="1" target="6zP0pa2SNQ4AhNTs8ksv-15">
          <mxGeometry width="50" height="50" relative="1" as="geometry">
            <mxPoint x="462.42640687119297" y="559.9964068711929" as="sourcePoint" />
            <mxPoint x="710" y="797.5699999999999" as="targetPoint" />
          </mxGeometry>
        </mxCell>
        <mxCell id="6zP0pa2SNQ4AhNTs8ksv-17" value="" style="endArrow=classic;html=1;exitX=0;exitY=1;exitDx=0;exitDy=0;entryX=0.5;entryY=0;entryDx=0;entryDy=0;" edge="1" parent="1" target="6zP0pa2SNQ4AhNTs8ksv-14">
          <mxGeometry width="50" height="50" relative="1" as="geometry">
            <mxPoint x="377.57359312880703" y="559.9964068711929" as="sourcePoint" />
            <mxPoint x="380" y="766.5699999999999" as="targetPoint" />
          </mxGeometry>
        </mxCell>
      </root>
    </mxGraphModel>
  </diagram>
</mxfile>
